solid OpenSCAD_Model
  facet normal -1 0 0
    outer loop
      vertex 25.4 0 0
      vertex 25.4 38.1 1
      vertex 25.4 38.1 0
    endloop
  endfacet
  facet normal -1 -0 0
    outer loop
      vertex 25.4 38.1 1
      vertex 25.4 0 0
      vertex 25.4 0 1
    endloop
  endfacet
  facet normal -0 0 1
    outer loop
      vertex 25.4 38.1 1
      vertex 50.8 0 1
      vertex 50.8 38.1 1
    endloop
  endfacet
  facet normal 0 0 1
    outer loop
      vertex 50.8 0 1
      vertex 25.4 38.1 1
      vertex 25.4 0 1
    endloop
  endfacet
  facet normal -1 0 0
    outer loop
      vertex 50.8 0 1
      vertex 50.8 38.1 2
      vertex 50.8 38.1 1
    endloop
  endfacet
  facet normal -1 -0 0
    outer loop
      vertex 50.8 38.1 2
      vertex 50.8 0 1
      vertex 50.8 0 2
    endloop
  endfacet
  facet normal 0 1 0
    outer loop
      vertex 101.6 38.1 3
      vertex 76.2 38.1 2
      vertex 76.2 38.1 3
    endloop
  endfacet
  facet normal 0 1 0
    outer loop
      vertex 76.2 38.1 2
      vertex 50.8 38.1 1
      vertex 50.8 38.1 2
    endloop
  endfacet
  facet normal 0 1 -0
    outer loop
      vertex 101.6 38.1 0
      vertex 76.2 38.1 2
      vertex 101.6 38.1 3
    endloop
  endfacet
  facet normal 0 1 0
    outer loop
      vertex 76.2 38.1 2
      vertex 101.6 38.1 0
      vertex 50.8 38.1 1
    endloop
  endfacet
  facet normal 0 1 0
    outer loop
      vertex 25.4 38.1 0
      vertex 50.8 38.1 1
      vertex 101.6 38.1 0
    endloop
  endfacet
  facet normal 0 1 0
    outer loop
      vertex 50.8 38.1 1
      vertex 25.4 38.1 0
      vertex 25.4 38.1 1
    endloop
  endfacet
  facet normal 0 0 -1
    outer loop
      vertex 25.4 0 0
      vertex 101.6 38.1 0
      vertex 101.6 0 0
    endloop
  endfacet
  facet normal -0 0 -1
    outer loop
      vertex 101.6 38.1 0
      vertex 25.4 0 0
      vertex 25.4 38.1 0
    endloop
  endfacet
  facet normal 0 -1 0
    outer loop
      vertex 25.4 0 1
      vertex 25.4 0 0
      vertex 50.8 0 1
    endloop
  endfacet
  facet normal 0 -1 0
    outer loop
      vertex 50.8 0 2
      vertex 50.8 0 1
      vertex 76.2 0 2
    endloop
  endfacet
  facet normal 0 -1 0
    outer loop
      vertex 76.2 0 2
      vertex 101.6 0 3
      vertex 76.2 0 3
    endloop
  endfacet
  facet normal 0 -1 0
    outer loop
      vertex 101.6 0 0
      vertex 76.2 0 2
      vertex 50.8 0 1
    endloop
  endfacet
  facet normal 0 -1 0
    outer loop
      vertex 101.6 0 0
      vertex 50.8 0 1
      vertex 25.4 0 0
    endloop
  endfacet
  facet normal 0 -1 0
    outer loop
      vertex 76.2 0 2
      vertex 101.6 0 0
      vertex 101.6 0 3
    endloop
  endfacet
  facet normal -0 0 1
    outer loop
      vertex 50.8 38.1 2
      vertex 76.2 0 2
      vertex 76.2 38.1 2
    endloop
  endfacet
  facet normal 0 0 1
    outer loop
      vertex 76.2 0 2
      vertex 50.8 38.1 2
      vertex 50.8 0 2
    endloop
  endfacet
  facet normal -1 0 0
    outer loop
      vertex 76.2 0 2
      vertex 76.2 38.1 3
      vertex 76.2 38.1 2
    endloop
  endfacet
  facet normal -1 -0 0
    outer loop
      vertex 76.2 38.1 3
      vertex 76.2 0 2
      vertex 76.2 0 3
    endloop
  endfacet
  facet normal -0 0 1
    outer loop
      vertex 76.2 38.1 3
      vertex 101.6 0 3
      vertex 101.6 38.1 3
    endloop
  endfacet
  facet normal 0 0 1
    outer loop
      vertex 101.6 0 3
      vertex 76.2 38.1 3
      vertex 76.2 0 3
    endloop
  endfacet
  facet normal 1 -0 0
    outer loop
      vertex 101.6 0 3
      vertex 101.6 38.1 0
      vertex 101.6 38.1 3
    endloop
  endfacet
  facet normal 1 0 0
    outer loop
      vertex 101.6 38.1 0
      vertex 101.6 0 3
      vertex 101.6 0 0
    endloop
  endfacet
endsolid OpenSCAD_Model
